<svg version="1.1" id="Layer_1" xmlns="http://www.w3.org/2000/svg" xmlns:xlink="http://www.w3.org/1999/xlink" x="0px" y="0px"
	 width="100%" viewBox="0 0 1254 1254" enable-background="new 0 0 1254 1254" xml:space="preserve">
<path fill="#FEFEFE" opacity="1.000000" stroke="none" 
	d="
M577.000000,1255.000000 
	C384.666656,1255.000000 192.833328,1255.000000 1.000000,1255.000000 
	C1.000000,837.000000 1.000000,419.000000 1.000000,1.000000 
	C419.000000,1.000000 837.000000,1.000000 1255.000000,1.000000 
	C1255.000000,419.000000 1255.000000,837.000000 1255.000000,1255.000000 
	C1029.166626,1255.000000 803.333313,1255.000000 577.000000,1255.000000 
M921.430115,761.388123 
	C921.430115,761.388123 921.453491,761.324829 922.002686,760.957764 
	C923.637146,753.559814 926.670776,746.166382 926.695129,738.763123 
	C927.033875,635.779907 926.966614,532.795410 926.952576,429.811218 
	C926.952209,427.187897 926.430298,424.564667 926.227966,421.286224 
	C926.140137,420.858215 926.052307,420.430176 926.053406,419.234314 
	C925.415283,417.138184 924.777100,415.042053 924.089172,412.199890 
	C923.953674,411.719391 923.857056,411.223755 923.677124,410.760529 
	C916.275513,391.709320 899.078125,379.951447 878.329041,379.942963 
	C803.884521,379.912567 729.439880,379.890381 654.995483,379.978943 
	C643.116577,379.993073 633.320496,376.098236 625.518738,366.943939 
	C610.830383,349.709229 595.939758,332.647034 581.145996,315.502045 
	C572.752991,305.775055 562.207275,300.192505 549.319763,300.163147 
	C491.529907,300.031586 433.739288,300.018738 375.949585,300.185944 
	C364.619019,300.218719 354.452789,304.171387 345.368958,312.186951 
	C343.914215,313.791534 342.459442,315.396088 340.565857,317.228638 
	C340.311279,317.640991 340.056702,318.053314 339.217072,318.845154 
	C331.972504,327.775940 329.024292,338.105804 329.033813,349.476746 
	C329.077911,402.106964 329.081329,454.737152 329.082916,507.367371 
	C329.085205,584.147705 328.978394,660.928284 329.232147,737.707764 
	C329.254578,744.496704 331.590881,751.277954 332.931152,758.782104 
	C338.564911,771.784119 347.948975,780.616089 361.460480,785.409424 
	C362.315399,776.171753 362.812866,767.692139 363.924622,759.293823 
	C370.533142,709.372681 390.519989,665.429443 423.495483,627.424072 
	C434.313538,614.955933 447.987305,609.712708 464.558502,611.868347 
	C488.955994,615.041992 508.286224,640.856506 504.051422,665.047119 
	C503.493774,668.232605 502.590393,671.357605 501.777191,674.807373 
	C533.725281,661.378723 566.958984,682.461548 568.758667,718.447388 
	C608.321716,695.843567 647.927246,696.329529 687.754822,718.662231 
	C687.953674,701.007446 695.274231,687.683533 709.016113,678.233826 
	C723.095581,668.551941 738.426392,668.733704 754.375427,675.002075 
	C753.919067,673.374695 753.705872,672.575439 753.470886,671.782593 
	C747.068176,650.174561 755.725220,628.562317 775.258057,617.396606 
	C794.211609,606.562073 816.239136,609.954285 831.478088,626.843018 
	C863.680054,662.531067 882.996216,704.524475 890.950684,751.771362 
	C892.787842,762.683533 893.478088,773.788879 894.759583,785.378784 
	C906.848816,781.118408 915.847168,773.670715 921.460083,761.774658 
	C921.460083,761.774658 921.460754,761.448242 921.430115,761.388123 
M643.400940,893.033020 
	C679.847839,884.798340 704.868103,855.531372 706.278992,819.482666 
	C708.049683,774.244446 673.479797,736.622131 629.618469,736.053284 
	C582.966125,735.448181 546.305054,774.762024 549.787292,821.661011 
	C553.269714,868.563232 596.914490,902.193481 643.400940,893.033020 
M811.894104,709.649963 
	C838.481506,767.744995 838.075806,825.525940 809.802124,882.946899 
	C805.194458,892.304626 807.672424,901.676270 816.177673,906.088989 
	C825.028870,910.681091 835.146057,907.220764 839.777466,898.045166 
	C852.818787,872.208191 861.117004,844.885681 863.689453,816.100037 
	C869.311890,753.184387 851.479858,697.370911 811.446777,648.603821 
	C805.102966,640.876099 794.413269,639.913940 786.968994,646.185608 
	C779.915039,652.128479 779.339111,662.232666 785.966675,669.789490 
	C796.370422,681.652222 804.454773,694.987915 811.894104,709.649963 
M397.668091,847.868835 
	C401.991394,865.559753 408.346802,882.499878 416.600830,898.721680 
	C420.150421,905.697754 427.927063,909.291992 435.468658,907.658508 
	C442.828217,906.064453 448.294281,900.446594 448.243683,893.070007 
	C448.216583,889.126038 446.792358,884.912781 445.018158,881.302917 
	C427.322021,845.297302 420.847290,807.400879 426.517365,767.737915 
	C431.789795,730.856445 446.088135,697.781982 470.182159,669.030029 
	C472.770325,665.941528 474.042999,660.832153 474.012939,656.674072 
	C473.962433,649.689819 469.438873,645.014587 462.790283,642.976013 
	C455.311096,640.682617 448.989716,642.963989 444.036591,648.901245 
	C427.025726,669.292053 413.836700,691.925171 404.845367,716.913330 
	C389.506653,759.541992 386.914124,802.949158 397.668091,847.868835 
M474.296295,851.210999 
	C477.920959,861.203125 481.158936,871.358276 485.280609,881.140991 
	C489.289062,890.654968 499.712769,894.268188 508.557983,890.006653 
	C517.312073,885.789124 520.016846,876.225647 515.185120,866.574707 
	C493.131653,822.524841 500.460541,766.113037 533.051453,729.054993 
	C539.677490,721.520630 539.440491,711.724731 532.478638,705.381958 
	C525.519348,699.041626 514.796204,699.651733 508.435333,707.205017 
	C473.085510,749.181396 461.646362,796.947510 474.296295,851.210999 
M771.201965,743.233337 
	C763.370056,731.295410 756.032227,718.990845 747.538574,707.543884 
	C741.519104,699.431335 730.535339,698.964722 723.597229,705.113403 
	C716.280823,711.597351 716.233154,720.822510 722.861023,729.083496 
	C756.719788,771.285278 762.359436,817.253540 740.638672,866.634888 
	C736.226257,876.666260 738.664551,885.872742 747.504150,890.002747 
	C756.694275,894.296509 766.351013,890.730957 770.736023,881.061890 
	C791.406372,835.482971 792.498962,789.746887 771.201965,743.233337 
z"/>
<path fill="#5C58D7" opacity="1.000000" stroke="none" 
	d="
M921.233154,762.009338 
	C915.847168,773.670715 906.848816,781.118408 894.759583,785.378784 
	C893.478088,773.788879 892.787842,762.683533 890.950684,751.771362 
	C882.996216,704.524475 863.680054,662.531067 831.478088,626.843018 
	C816.239136,609.954285 794.211609,606.562073 775.258057,617.396606 
	C755.725220,628.562317 747.068176,650.174561 753.470886,671.782593 
	C753.705872,672.575439 753.919067,673.374695 754.375427,675.002075 
	C738.426392,668.733704 723.095581,668.551941 709.016113,678.233826 
	C695.274231,687.683533 687.953674,701.007446 687.754822,718.662231 
	C647.927246,696.329529 608.321716,695.843567 568.758667,718.447388 
	C566.958984,682.461548 533.725281,661.378723 501.777191,674.807373 
	C502.590393,671.357605 503.493774,668.232605 504.051422,665.047119 
	C508.286224,640.856506 488.955994,615.041992 464.558502,611.868347 
	C447.987305,609.712708 434.313538,614.955933 423.495483,627.424072 
	C390.519989,665.429443 370.533142,709.372681 363.924622,759.293823 
	C362.812866,767.692139 362.315399,776.171753 361.460480,785.409424 
	C347.948975,780.616089 338.564911,771.784119 333.188660,758.180054 
	C333.406403,756.167236 333.575409,754.711426 333.282593,753.355347 
	C332.703033,750.671448 331.240967,748.040955 331.248016,745.391296 
	C331.277985,734.105408 331.748505,722.821289 331.981873,711.534973 
	C332.097351,705.949646 335.085815,704.181580 340.221069,706.814758 
	C340.956665,707.191895 341.593353,707.973328 342.340363,708.070374 
	C343.679962,708.244385 345.462646,708.538330 346.325928,707.854736 
	C347.187317,707.172791 347.648499,705.256958 347.416260,704.049194 
	C346.447876,699.013611 343.783905,697.891418 339.029388,699.407166 
	C330.129150,696.798767 332.017670,690.068909 332.016327,684.168945 
	C331.991211,573.415039 331.998444,462.661102 331.997986,351.907196 
	C331.997955,350.408356 332.282318,348.835419 331.929474,347.423126 
	C330.152679,340.311554 332.972321,334.107361 335.583221,327.860260 
	C336.906525,324.694031 338.390686,321.595062 339.802124,318.465668 
	C340.056702,318.053314 340.311279,317.640991 341.129211,317.080444 
	C343.125061,315.279419 344.557526,313.626587 345.990021,311.973724 
	C354.452789,304.171387 364.619019,300.218719 375.949585,300.185944 
	C433.739288,300.018738 491.529907,300.031586 549.319763,300.163147 
	C562.207275,300.192505 572.752991,305.775055 581.145996,315.502045 
	C595.939758,332.647034 610.830383,349.709229 625.518738,366.943939 
	C633.320496,376.098236 643.116577,379.993073 654.995483,379.978943 
	C729.439880,379.890381 803.884521,379.912567 878.329041,379.942963 
	C899.078125,379.951447 916.275513,391.709320 923.677124,410.760529 
	C923.857056,411.223755 923.953674,411.719391 923.840942,412.786987 
	C924.383301,415.583466 925.173950,417.792816 925.964600,420.002167 
	C926.052307,420.430176 926.140137,420.858215 925.881042,421.856781 
	C925.023560,425.332001 924.068848,428.236328 924.066650,431.141388 
	C923.989807,533.458130 924.002136,635.774963 924.005493,738.091797 
	C924.005554,739.590698 923.559875,741.337830 924.167664,742.542542 
	C926.085693,746.344910 924.041687,749.366577 922.951843,752.727844 
	C922.063660,755.467468 921.924744,758.450012 921.453491,761.324829 
	C921.453491,761.324829 921.430115,761.388123 921.234741,761.337891 
	C920.909241,761.346497 920.778992,761.405396 920.648804,761.464355 
	C920.843628,761.645996 921.038391,761.827637 921.233154,762.009338 
z"/>
<path fill="#5C58D7" opacity="1.000000" stroke="none" 
	d="
M642.973389,893.084290 
	C596.914490,902.193481 553.269714,868.563232 549.787292,821.661011 
	C546.305054,774.762024 582.966125,735.448181 629.618469,736.053284 
	C673.479797,736.622131 708.049683,774.244446 706.278992,819.482666 
	C704.868103,855.531372 679.847839,884.798340 642.973389,893.084290 
z"/>
<path fill="#5D59D7" opacity="1.000000" stroke="none" 
	d="
M811.738098,709.310059 
	C804.454773,694.987915 796.370422,681.652222 785.966675,669.789490 
	C779.339111,662.232666 779.915039,652.128479 786.968994,646.185608 
	C794.413269,639.913940 805.102966,640.876099 811.446777,648.603821 
	C851.479858,697.370911 869.311890,753.184387 863.689453,816.100037 
	C861.117004,844.885681 852.818787,872.208191 839.777466,898.045166 
	C835.146057,907.220764 825.028870,910.681091 816.177673,906.088989 
	C807.672424,901.676270 805.194458,892.304626 809.802124,882.946899 
	C838.075806,825.525940 838.481506,767.744995 811.738098,709.310059 
z"/>
<path fill="#5D59D7" opacity="1.000000" stroke="none" 
	d="
M397.537323,847.473938 
	C386.914124,802.949158 389.506653,759.541992 404.845367,716.913330 
	C413.836700,691.925171 427.025726,669.292053 444.036591,648.901245 
	C448.989716,642.963989 455.311096,640.682617 462.790283,642.976013 
	C469.438873,645.014587 473.962433,649.689819 474.012939,656.674072 
	C474.042999,660.832153 472.770325,665.941528 470.182159,669.030029 
	C446.088135,697.781982 431.789795,730.856445 426.517365,767.737915 
	C420.847290,807.400879 427.322021,845.297302 445.018158,881.302917 
	C446.792358,884.912781 448.216583,889.126038 448.243683,893.070007 
	C448.294281,900.446594 442.828217,906.064453 435.468658,907.658508 
	C427.927063,909.291992 420.150421,905.697754 416.600830,898.721680 
	C408.346802,882.499878 401.991394,865.559753 397.537323,847.473938 
z"/>
<path fill="#5D59D7" opacity="1.000000" stroke="none" 
	d="
M474.202698,850.812256 
	C461.646362,796.947510 473.085510,749.181396 508.435333,707.205017 
	C514.796204,699.651733 525.519348,699.041626 532.478638,705.381958 
	C539.440491,711.724731 539.677490,721.520630 533.051453,729.054993 
	C500.460541,766.113037 493.131653,822.524841 515.185120,866.574707 
	C520.016846,876.225647 517.312073,885.789124 508.557983,890.006653 
	C499.712769,894.268188 489.289062,890.654968 485.280609,881.140991 
	C481.158936,871.358276 477.920959,861.203125 474.202698,850.812256 
z"/>
<path fill="#5D59D7" opacity="1.000000" stroke="none" 
	d="
M771.377197,743.566772 
	C792.498962,789.746887 791.406372,835.482971 770.736023,881.061890 
	C766.351013,890.730957 756.694275,894.296509 747.504150,890.002747 
	C738.664551,885.872742 736.226257,876.666260 740.638672,866.634888 
	C762.359436,817.253540 756.719788,771.285278 722.861023,729.083496 
	C716.233154,720.822510 716.280823,711.597351 723.597229,705.113403 
	C730.535339,698.964722 741.519104,699.431335 747.538574,707.543884 
	C756.032227,718.990845 763.370056,731.295410 771.377197,743.566772 
z"/>
<path fill="#6461D6" opacity="1.000000" stroke="none" 
	d="
M339.509583,318.655396 
	C338.390686,321.595062 336.906525,324.694031 335.583221,327.860260 
	C332.972321,334.107361 330.152679,340.311554 331.929474,347.423126 
	C332.282318,348.835419 331.997955,350.408356 331.997986,351.907196 
	C331.998444,462.661102 331.991211,573.415039 332.016327,684.168945 
	C332.017670,690.068909 330.129150,696.798767 339.029388,699.407166 
	C343.783905,697.891418 346.447876,699.013611 347.416260,704.049194 
	C347.648499,705.256958 347.187317,707.172791 346.325928,707.854736 
	C345.462646,708.538330 343.679962,708.244385 342.340363,708.070374 
	C341.593353,707.973328 340.956665,707.191895 340.221069,706.814758 
	C335.085815,704.181580 332.097351,705.949646 331.981873,711.534973 
	C331.748505,722.821289 331.277985,734.105408 331.248016,745.391296 
	C331.240967,748.040955 332.703033,750.671448 333.282593,753.355347 
	C333.575409,754.711426 333.406403,756.167236 333.149353,757.820374 
	C331.590881,751.277954 329.254578,744.496704 329.232147,737.707764 
	C328.978394,660.928284 329.085205,584.147705 329.082916,507.367371 
	C329.081329,454.737152 329.077911,402.106964 329.033813,349.476746 
	C329.024292,338.105804 331.972504,327.775940 339.509583,318.655396 
z"/>
<path fill="#6562DB" opacity="1.000000" stroke="none" 
	d="
M921.728088,761.141296 
	C921.924744,758.450012 922.063660,755.467468 922.951843,752.727844 
	C924.041687,749.366577 926.085693,746.344910 924.167664,742.542542 
	C923.559875,741.337830 924.005554,739.590698 924.005493,738.091797 
	C924.002136,635.774963 923.989807,533.458130 924.066650,431.141388 
	C924.068848,428.236328 925.023560,425.332001 925.842834,422.184357 
	C926.430298,424.564667 926.952209,427.187897 926.952576,429.811218 
	C926.966614,532.795410 927.033875,635.779907 926.695129,738.763123 
	C926.670776,746.166382 923.637146,753.559814 921.728088,761.141296 
z"/>
<path fill="#6562DB" opacity="1.000000" stroke="none" 
	d="
M926.009033,419.618225 
	C925.173950,417.792816 924.383301,415.583466 923.865845,413.160034 
	C924.777100,415.042053 925.415283,417.138184 926.009033,419.618225 
z"/>
<path fill="#6461D6" opacity="1.000000" stroke="none" 
	d="
M345.679504,312.080322 
	C344.557526,313.626587 343.125061,315.279419 341.348633,316.966492 
	C342.459442,315.396088 343.914215,313.791534 345.679504,312.080322 
z"/>
<path fill="#6562DB" opacity="1.000000" stroke="none" 
	d="
M921.346619,761.891968 
	C921.038391,761.827637 920.843628,761.645996 920.648804,761.464355 
	C920.778992,761.405396 920.909241,761.346497 921.250122,761.367920 
	C921.460754,761.448242 921.460083,761.774658 921.346619,761.891968 
z"/>
</svg>