<?xml version="1.0" encoding="UTF-8"?>
<svg version="1.1" xmlns="http://www.w3.org/2000/svg" width="1024" height="1024">
<path d="M0 0 C6.68320941 4.70299921 13.08594546 9.53127273 15.875 17.5 C16.28575413 25.71508262 13.14529243 30.76598623 8.9375 37.625 C7.65308542 39.77024386 6.37197431 41.91746821 5.09375 44.06640625 C4.42214844 45.19449707 3.75054688 46.32258789 3.05859375 47.48486328 C-0.44967494 53.43499506 -3.74673812 59.50379723 -7.0625 65.5625 C-8.40798383 68.01610317 -9.75453304 70.46912008 -11.1015625 72.921875 C-11.42971954 73.51961227 -11.75787659 74.11734955 -12.09597778 74.73320007 C-15.33148018 80.61852018 -18.62618897 86.46958614 -21.9375 92.3125 C-22.74006226 93.72909912 -22.74006226 93.72909912 -23.55883789 95.17431641 C-25.44390438 98.49903282 -27.33093083 101.82263119 -29.21923828 105.14550781 C-34.71630437 114.82662377 -40.05269531 124.58765914 -45.30859375 134.40209961 C-48.32621251 140.01205083 -51.45729801 145.51214623 -54.81176758 150.92822266 C-56.13633665 153.07955994 -56.13633665 153.07955994 -57 156 C-56.154375 155.814375 -55.30875 155.62875 -54.4375 155.4375 C-50.70869422 154.96292472 -47.70591266 155.47058391 -44 156 C-43.0925 155.835 -42.185 155.67 -41.25 155.5 C-38.26702993 155.04108153 -36.21154032 155.10793835 -33.25 155.4375 C-27.94697276 156.00305831 -22.70226425 156.11711943 -17.375 156.125 C-16.16505371 156.13164673 -16.16505371 156.13164673 -14.93066406 156.13842773 C-11.15993786 156.49363266 -11.15993786 156.49363266 -8 155 C-5.83519203 154.9010706 -3.66706215 154.870289 -1.5 154.875 C-0.3140625 154.87242187 0.871875 154.86984375 2.09375 154.8671875 C5 155 5 155 6 156 C6.99 155.814375 7.98 155.62875 9 155.4375 C13.57616984 154.67639067 17.58793208 155.78943261 22 157 C22 156.34 22 155.68 22 155 C25.45831586 154.97105453 28.91660072 154.95322 32.375 154.9375 C33.35984375 154.92912109 34.3446875 154.92074219 35.359375 154.91210938 C36.77089844 154.90727539 36.77089844 154.90727539 38.2109375 154.90234375 C39.08024902 154.89710693 39.94956055 154.89187012 40.84521484 154.88647461 C43 155 43 155 45 156 C46.2375 155.7834375 46.2375 155.7834375 47.5 155.5625 C53.7527881 154.55758763 60.24641547 153.93142158 66 157 C66.33 156.34 66.66 155.68 67 155 C70.63 155.66 74.26 156.32 78 157 C78 156.34 78 155.68 78 155 C79.0725 155.185625 80.145 155.37125 81.25 155.5625 C84.58173143 155.951202 85.937585 155.816644 89 155 C90.66821323 155.32550502 92.33499557 155.65846063 94 156 C94.99 155.67 95.98 155.34 97 155 C99.33333333 155.33333333 101.66666667 155.66666667 104 156 C104.99 155.67 105.98 155.34 107 155 C109.53027066 155.16896632 112.01393491 155.51014521 114.52734375 155.84375 C116.97437275 155.99838058 118.66145537 155.64372841 121 155 C122.33783393 155.31478446 123.67203709 155.64587656 125 156 C125.66 155.67 126.32 155.34 127 155 C131.22146566 154.71856896 134.17291493 155.19901879 138 157 C138 156.34 138 155.68 138 155 C144.62027163 154.97465061 151.24053076 154.95713336 157.86083984 154.94506836 C160.11312325 154.94003877 162.36540339 154.93321434 164.61767578 154.92456055 C167.85450039 154.91243494 171.09128183 154.90675794 174.328125 154.90234375 C175.33554749 154.89718246 176.34296997 154.89202118 177.38092041 154.88670349 C178.32159363 154.88662796 179.26226685 154.88655243 180.23144531 154.88647461 C181.05751282 154.884254 181.88358032 154.88203339 182.73468018 154.87974548 C185 155 185 155 187.23553467 155.56959534 C187.81780823 155.71162888 188.40008179 155.85366241 189 156 C189.33 155.67 189.66 155.34 190 155 C192.33297433 154.95907063 194.66705225 154.95758277 197 155 C197 155.66 197 156.32 197 157 C197.61746094 157.14695312 198.23492188 157.29390625 198.87109375 157.4453125 C209.8266214 160.34677644 218.43685735 166.2426575 224.25 176.125 C229.93124536 187.82168163 228.97002764 199.68782026 227.9375 212.25 C227.79139198 214.14981895 227.64641272 216.04972497 227.50244141 217.94970703 C227.18463989 222.10616944 226.85745954 226.26176327 226.52392578 230.41699219 C226.08448054 235.90357882 225.6651875 241.39147134 225.25268555 246.88014221 C222.6631633 281.28293702 219.6686555 315.64957526 216.61637115 350.01395416 C216.31428883 353.41734626 216.01311668 356.82081795 215.71209717 360.2243042 C215.23205479 365.64741243 214.74860579 371.07020731 214.26255989 376.49278069 C214.08278399 378.50226746 213.90389234 380.51183359 213.72598076 382.52148628 C209.98356218 424.74029674 209.98356218 424.74029674 200 435 C190.43165091 442.90090063 181.62067739 445.16094544 169.30333519 445.13422108 C168.55626861 445.13657331 167.80920204 445.13892554 167.03949708 445.14134905 C164.54018173 445.14799753 162.04091887 445.14758209 159.54159546 445.14717102 C157.72990612 445.15047221 155.91821751 445.15419832 154.10652983 445.1583125 C149.13074967 445.16831121 144.15498157 445.17204585 139.17919278 445.17470181 C133.81159534 445.17861108 128.44400739 445.18818885 123.07641602 445.19691467 C110.11661007 445.21665944 97.15680336 445.22674187 84.19698614 445.23564246 C78.0919826 445.24002782 71.98697993 445.24539391 65.88197708 445.25063133 C45.58532326 445.26764011 25.28866997 445.28213468 4.99201012 445.28938007 C-0.27274196 445.29128992 -5.53749403 445.29321026 -10.80224609 445.29516602 C-12.76499902 445.29589163 -12.76499902 445.29589163 -14.76740353 445.2966319 C-35.96840994 445.3049338 -57.16935995 445.33027502 -78.37034173 445.36274669 C-100.14257617 445.39582123 -121.91478195 445.41382911 -143.68704164 445.41702431 C-155.90915004 445.41918882 -168.13117614 445.42792915 -180.35326004 445.45348549 C-190.76079497 445.47519765 -201.16822761 445.48324023 -211.57578261 445.47351871 C-216.88372018 445.46897583 -222.19144672 445.47085986 -227.49935532 445.49028015 C-232.36402159 445.50792475 -237.22832308 445.50690345 -242.0929933 445.49138286 C-243.84738236 445.4890088 -245.60179677 445.49331976 -247.35614713 445.50521151 C-260.76938947 445.59045839 -273.18195174 444.65223757 -283.7734375 435.40625 C-292.05177279 426.45983853 -294.90971869 416.24865224 -295.94213867 404.44799805 C-296.05759206 403.21426988 -296.05759206 403.21426988 -296.17537785 401.9556179 C-296.42915043 399.22485283 -296.6737286 396.49335169 -296.91796875 393.76171875 C-297.09747822 391.80200071 -297.27739982 389.84232038 -297.45770264 387.88267517 C-297.94262405 382.58805365 -298.41839846 377.29264886 -298.89146042 371.99695587 C-299.18800225 368.68188524 -299.48668846 365.36701398 -299.78591919 362.05218506 C-302.6263697 330.54743537 -305.28549894 299.03019865 -307.71643448 267.49118423 C-307.93377611 264.67328141 -308.15241231 261.85548122 -308.3711853 259.03768921 C-310.95434517 225.66621877 -313.15444831 192.31351858 -313.63305664 158.83740234 C-313.68827226 155.07234118 -313.75861941 151.30775323 -313.83007812 147.54296875 C-314.02621834 136.14612188 -314.10012232 124.76055189 -313.70703125 113.3671875 C-313.68340012 112.47436066 -313.65976898 111.58153381 -313.63542175 110.66165161 C-313.03172292 96.84285702 -308.26931261 85.74608874 -298.25 76.125 C-283.03574116 63.3166104 -263.90595015 64.68528129 -245.13671875 64.69921875 C-242.93300802 64.69532166 -240.72929804 64.69098494 -238.52558899 64.68623352 C-233.92564449 64.67881053 -229.3257768 64.67903388 -224.72583008 64.68432617 C-218.8761493 64.69011432 -213.02678582 64.67318608 -207.1771574 64.6499815 C-202.63080556 64.63513924 -198.08452829 64.63438665 -193.53815651 64.63749123 C-191.38352646 64.63698324 -189.22889164 64.6318455 -187.07428551 64.62167931 C-163.25880869 64.52307917 -146.46230526 66.94664781 -127.875 82.63671875 C-127.33665527 83.08958252 -126.79831055 83.54244629 -126.24365234 84.0090332 C-124.69060893 85.31963319 -123.14589009 86.6400785 -121.6015625 87.9609375 C-119.10782034 90.15091344 -119.10782034 90.15091344 -116 91 C-116 91.66 -116 92.32 -116 93 C-111.02638346 94.75734451 -106.2584002 96.32584613 -101 97 C-101.60013502 100.94202848 -102.82018104 103.89685863 -104.73046875 107.38671875 C-105.28669922 108.40830078 -105.84292969 109.42988281 -106.41601562 110.48242188 C-107.00060547 111.54009766 -107.58519531 112.59777344 -108.1875 113.6875 C-108.75275391 114.72583984 -109.31800781 115.76417969 -109.90039062 116.83398438 C-113.05031882 122.58900783 -116.30387502 128.26063207 -119.73168945 133.85473633 C-120.92077641 135.86599853 -121.96664198 137.90583211 -123 140 C-123.67107473 140.00331015 -124.34214947 140.00662029 -125.0335598 140.01003075 C-141.39373816 140.09139864 -157.75381729 140.18353578 -174.11386681 140.28752708 C-182.02559875 140.33756008 -189.93732082 140.38400374 -197.84912109 140.421875 C-204.74839107 140.45490884 -211.64758222 140.49480221 -218.54676497 140.54279006 C-222.1967854 140.56794231 -225.8467543 140.58975625 -229.49683762 140.60334396 C-233.58052567 140.61867474 -237.66396575 140.6493258 -241.74755859 140.68115234 C-243.54507568 140.68439262 -243.54507568 140.68439262 -245.37890625 140.68769836 C-258.68856593 140.81984011 -269.01647969 143.4990593 -280 151 C-280.66 151 -281.32 151 -282 151 C-282 151.66 -282 152.32 -282 153 C-282.66 153 -283.32 153 -284 153 C-284 153.66 -284 154.32 -284 155 C-285.11181641 156.10988281 -285.11181641 156.10988281 -286.24609375 157.2421875 C-295.95086329 166.96072267 -302.84825584 182.44113553 -303.046875 196.26171875 C-303.03140625 197.16535156 -303.0159375 198.06898438 -303 199 C-302.38253906 197.88882813 -301.76507813 196.77765625 -301.12890625 195.6328125 C-296.19431018 186.90524265 -291.26854067 179.02214946 -284 172 C-283.14341797 171.14728516 -283.14341797 171.14728516 -282.26953125 170.27734375 C-270.33765943 159.19572408 -256.1521954 156.90325944 -240.53295898 156.79467773 C-239.63431625 156.78477814 -238.73567352 156.77487854 -237.80979919 156.76467896 C-234.87192317 156.73336852 -231.93403103 156.70842843 -228.99609375 156.68359375 C-226.94629014 156.66299784 -224.89649053 156.64200072 -222.84669495 156.62062073 C-217.47593439 156.56567221 -212.10513725 156.51614393 -206.73431396 156.46777344 C-201.24406718 156.41735851 -195.75387291 156.36177724 -190.26367188 156.30664062 C-179.50915955 156.19939245 -168.75460144 156.09787473 -158 156 C-158 155.67 -158 155.34 -158 155 C-148.66666667 155 -139.33333333 155 -130 155 C-130 155.33 -130 155.66 -130 156 C-127.36 156 -124.72 156 -122 156 C-114.91421861 143.5464814 -107.90493825 131.05445206 -101 118.5 C-95.71071678 108.88345026 -90.36606294 99.30136213 -84.94238281 89.75976562 C-80.83128733 82.5114554 -76.80881223 75.21689022 -72.79949951 67.91204834 C-67.63244788 58.49836841 -62.4017333 49.15085755 -56.8046875 39.984375 C-53.22760961 34.06903408 -50.0115773 27.96600891 -46.84375 21.82421875 C-35.09682912 -0.86162067 -35.09682912 -0.86162067 -24.1875 -6.4375 C-14.76764855 -8.09982673 -7.81870094 -5.14564079 0 0 Z M-20 6 C-25.15543715 11.53191468 -28.57952188 17.31328812 -32.0625 24 C-33.19193015 26.13131201 -34.32350258 28.26148994 -35.45703125 30.390625 C-36.03533691 31.47794922 -36.61364258 32.56527344 -37.20947266 33.68554688 C-40.66790113 40.08745919 -44.30584464 46.38955218 -47.94946289 52.6875 C-48.72471313 54.04101562 -48.72471313 54.04101562 -49.515625 55.421875 C-49.97227539 56.21174805 -50.42892578 57.00162109 -50.89941406 57.81542969 C-51.94349131 59.88783502 -52.54404961 61.73316448 -53 64 C-42.11811035 72.00612227 -42.11811035 72.00612227 -30 76 C-28.34021995 73.40561688 -26.81237546 70.81116749 -25.3125 68.125 C-24.32841508 66.39306431 -23.34402245 64.66130344 -22.359375 62.9296875 C-21.82505859 61.98448242 -21.29074219 61.03927734 -20.74023438 60.06542969 C-17.54742162 54.44127748 -14.29991552 48.84855001 -11.0625 43.25 C-9.22541533 40.06738935 -7.38936626 36.88420112 -5.55639648 33.69921875 C-4.60736566 32.05333878 -3.65468581 30.40954699 -2.69555664 28.76953125 C-1.28707689 26.35050422 -0.05830455 24.21201654 0.6875 21.5 C-1.04132944 15.21334748 -7.78406563 11.10746106 -13.1328125 7.93359375 C-15.38674241 6.80662879 -17.49193264 6.23513131 -20 6 Z M-146 156 C-142 157 -142 157 -142 157 Z " fill="#07C6E5" transform="translate(554,309)"/>
<path d="M0 0 C0.99 0 1.98 0 3 0 C5.78190903 6.18547372 7.74866807 12.46506855 9.5 19 C12.09013156 28.57316556 14.67790672 37.18056884 21 45 C21.66 45.33 22.32 45.66 23 46 C23 46.66 23 47.32 23 48 C23.5465625 48.27328125 24.093125 48.5465625 24.65625 48.828125 C26.28543798 49.64271899 27.91014615 50.46630945 29.53125 51.296875 C36.41543439 54.66650209 43.28936455 57.18064685 50.625 59.375 C51.50220703 59.63764648 52.37941406 59.90029297 53.28320312 60.17089844 C58.06235248 61.57560777 58.06235248 61.57560777 63 62 C63 62.66 63 63.32 63 64 C64.65 64.33 66.3 64.66 68 65 C68 66.32 68 67.64 68 69 C61.09409074 71.78030113 54.17077596 74.29220242 47.0793457 76.54980469 C34.03002561 80.73645675 23.74009072 84.26486714 17 97 C14.2821927 103.15984405 12.36318015 109.4668065 10.72265625 115.98046875 C10.50754395 116.83261963 10.29243164 117.68477051 10.07080078 118.56274414 C9.65645274 120.23914454 9.25705267 121.91932819 8.87451172 123.60327148 C7.77483077 128.15428069 6.84273874 130.99405215 3 134 C-0.77442972 131.68245331 -1.70519022 129.80203311 -2.78125 125.5546875 C-3.20857422 123.93820312 -3.20857422 123.93820312 -3.64453125 122.2890625 C-3.92683594 121.16242188 -4.20914063 120.03578125 -4.5 118.875 C-6.88944458 109.53543578 -9.41425101 100.70272744 -14.625 92.5 C-15.02976562 91.8503125 -15.43453125 91.200625 -15.8515625 90.53125 C-16.93827521 88.8445234 -16.93827521 88.8445234 -19 88 C-19 87.34 -19 86.68 -19 86 C-20.2065625 85.62875 -20.2065625 85.62875 -21.4375 85.25 C-24.06255842 84.32892687 -26.43354994 83.35885543 -28.9375 82.1875 C-34.78171063 79.54438966 -40.86870227 77.63576933 -46.96240234 75.66308594 C-50.46077659 74.52462626 -53.94848742 73.35426661 -57.4375 72.1875 C-58.70698454 71.7641828 -59.97651136 71.34099238 -61.24609375 70.91796875 C-62.15488281 70.61503906 -63.06367187 70.31210937 -64 70 C-63.9375 67.6875 -63.9375 67.6875 -63 65 C-56.50797115 61.35877999 -48.83938277 59.80268441 -41.71289062 57.78125 C-29.46429089 54.18205855 -18.97175599 49.53359473 -12.44140625 38.05859375 C-9.56558692 31.95624541 -7.81577856 25.47787101 -6 19 C-5.62415034 17.67825668 -5.24785963 16.35663869 -4.87109375 15.03515625 C-4.20380892 12.68857895 -3.54391395 10.33987564 -2.89453125 7.98828125 C-2.07313772 5.24432471 -1.111006 2.63802747 0 0 Z " fill="#07C5E3" transform="translate(611,202)"/>
<path d="M0 0 C1.6219006 0.02554032 3.24395045 0.0430618 4.86602783 0.05194092 C16.13846236 0.12874047 25.22707888 1.8330909 34.90066528 8.03878784 C42.42060994 16.0833798 47.58816528 25.67830955 47.58816528 36.91378784 C0.72816528 36.91378784 -46.13183472 36.91378784 -94.41183472 36.91378784 C-93.42183472 36.41878784 -93.42183472 36.41878784 -92.41183472 35.91378784 C-92.32933472 35.23316284 -92.24683472 34.55253784 -92.16183472 33.85128784 C-90.10876411 25.81009462 -83.919766 21.47500571 -77.11105347 17.37863159 C-74.86010022 16.15705783 -72.66223436 15.10904997 -70.28683472 14.16378784 C-68.86370972 13.54503784 -68.86370972 13.54503784 -67.41183472 12.91378784 C-67.08183472 11.92378784 -66.75183472 10.93378784 -66.41183472 9.91378784 C-65.42183472 10.24378784 -64.43183472 10.57378784 -63.41183472 10.91378784 C-62.75183472 10.25378784 -62.09183472 9.59378784 -61.41183472 8.91378784 C-62.40183472 8.91378784 -63.39183472 8.91378784 -64.41183472 8.91378784 C-64.41183472 7.92378784 -64.41183472 6.93378784 -64.41183472 5.91378784 C-66.88683472 5.41878784 -66.88683472 5.41878784 -69.41183472 4.91378784 C-69.41183472 3.59378784 -69.41183472 2.27378784 -69.41183472 0.91378784 C-21.96079227 -0.37277285 -21.96079227 -0.37277285 0 0 Z " fill="#06C5E3" transform="translate(698.4118347167969,411.0862121582031)"/>
<path d="M0 0 C0.37511719 1.2065625 0.75023437 2.413125 1.13671875 3.65625 C1.65306896 5.27101791 2.17002877 6.88559098 2.6875 8.5 C3.05391602 9.68722656 3.05391602 9.68722656 3.42773438 10.8984375 C6.63854016 20.81535663 11.58232186 28.74252207 20.87792969 33.95214844 C24.91544916 35.94582464 29.17509412 37.31999198 33.4375 38.75 C34.35982422 39.06582031 35.28214844 39.38164062 36.23242188 39.70703125 C38.48619205 40.47775058 40.74196445 41.24188813 43 42 C43.0625 44.28515625 43.0625 44.28515625 42 47 C39.16568298 48.60316056 36.09905485 49.47159845 33 50.4375 C22.87811397 53.87192952 13.9905366 57.36874656 8.796875 67.30078125 C5.84336581 73.44799465 3.74658941 79.69292601 1.89453125 86.25 C1 89 1 89 -1 92 C-4.72859651 90.50923054 -4.72859651 90.50923054 -5.92553711 88.26342773 C-6.1241333 87.57708252 -6.32272949 86.8907373 -6.52734375 86.18359375 C-6.75921387 85.42344971 -6.99108398 84.66330566 -7.22998047 83.88012695 C-7.46346191 83.07406006 -7.69694336 82.26799316 -7.9375 81.4375 C-11.18841367 71.07355456 -14.41213945 62.06162612 -24 56 C-27.75786419 54.2896373 -31.54583212 52.78458088 -35.4140625 51.34765625 C-46.38832998 47.22334004 -46.38832998 47.22334004 -48 44 C-45.83878875 41.56721633 -44.16050195 40.49233211 -41.05078125 39.5703125 C-40.28443359 39.33183594 -39.51808594 39.09335937 -38.72851562 38.84765625 C-37.13790976 38.37188893 -35.54677559 37.89788373 -33.95507812 37.42578125 C-24.92866987 34.61020436 -17.13450486 30.15267985 -12 22 C-9.60633868 16.81807263 -7.836874 11.39688366 -6 6 C-3.8611482 0 -3.8611482 0 0 0 Z " fill="#07C7E5" transform="translate(681,317)"/>
<path d="M0 0 C0.99 0.33 1.98 0.66 3 1 C4.03825416 3.81343008 4.91986783 6.56332811 5.75 9.4375 C8.72173681 18.95943613 11.88178832 27.08564519 21.06713867 32.04931641 C24.28784003 33.63342795 27.58933467 34.96199135 30.9375 36.25 C31.62134766 36.518125 32.30519531 36.78625 33.00976562 37.0625 C34.67129202 37.71316768 36.33537949 38.35728938 38 39 C38 40.32 38 41.64 38 43 C36.78183594 43.43570313 35.56367188 43.87140625 34.30859375 44.3203125 C32.68460664 44.92109386 31.0609247 45.52270058 29.4375 46.125 C28.63763672 46.40859375 27.83777344 46.6921875 27.01367188 46.984375 C18.15123002 50.31231235 12.1960117 55.49142073 8 64 C5.84798216 68.93985914 3.90884987 73.96221064 2 79 C1.01 79 0.02 79 -1 79 C-1.21615967 78.42032471 -1.43231934 77.84064941 -1.6550293 77.2434082 C-2.65192434 74.59428871 -3.66945779 71.95356102 -4.6875 69.3125 C-5.02716797 68.40048828 -5.36683594 67.48847656 -5.71679688 66.54882812 C-7.7520914 61.31793098 -9.57946023 57.6600168 -14 54 C-14.72574219 53.31421875 -15.45148438 52.6284375 -16.19921875 51.921875 C-20.13441224 49.22157486 -24.32493507 47.80943718 -28.8125 46.25 C-30.13797852 45.77626953 -30.13797852 45.77626953 -31.49023438 45.29296875 C-33.65722045 44.51988183 -35.82696909 43.75589226 -38 43 C-38 42.01 -38 41.02 -38 40 C-32.39113509 37.08770476 -26.72504628 34.6299 -20.83203125 32.34375 C-13.31269793 28.77595598 -9.18854846 22.75754312 -6.27929688 15.10400391 C-5.34815214 12.41885743 -4.46805616 9.72399246 -3.6484375 7.00268555 C-2.18522117 2.18522117 -2.18522117 2.18522117 0 0 Z " fill="#07C6E4" transform="translate(408,228)"/>
<path d="M0 0 C0.99 0 1.98 0 3 0 C3.36351562 1.18335938 3.72703125 2.36671875 4.1015625 3.5859375 C9.58890884 21.55049446 9.58890884 21.55049446 23 34 C25.63613064 35.13706339 28.28215156 36.06281088 31 37 C31.66 37.66 32.32 38.32 33 39 C32.35933594 39.31453125 31.71867188 39.6290625 31.05859375 39.953125 C28.36419482 41.28627022 25.68168555 42.64148873 23 44 C22.33613281 44.32226562 21.67226563 44.64453125 20.98828125 44.9765625 C11.18666979 50.04256393 7.63360628 58.99014803 4.3125 68.9375 C4.08175781 69.66839844 3.85101562 70.39929688 3.61328125 71.15234375 C3 73 3 73 2 75 C0.18359375 74.94140625 0.18359375 74.94140625 -2 74 C-3.17304509 71.62090855 -4.07718831 69.42611037 -4.9375 66.9375 C-9.95830759 53.56286284 -15.84209361 47.10285789 -28.99609375 41.078125 C-31 40 -31 40 -32 38 C-30.99839844 37.6596875 -29.99679687 37.319375 -28.96484375 36.96875 C-18.25391519 33.14418709 -12.38238085 29.26811101 -7.3125 18.75 C-5.17364862 13.70993438 -3.43466772 8.55807987 -1.796875 3.3359375 C-1 1 -1 1 0 0 Z " fill="#06C6E4" transform="translate(596,380)"/>
<path d="M0 0 C0.82371094 -0.020625 1.64742187 -0.04125 2.49609375 -0.0625 C3.67751953 -0.07023437 3.67751953 -0.07023437 4.8828125 -0.078125 C5.96006592 -0.09214355 5.96006592 -0.09214355 7.05908203 -0.10644531 C7.65833496 0.01118164 8.25758789 0.12880859 8.875 0.25 C9.535 1.24 10.195 2.23 10.875 3.25 C8.02193203 5.57472205 5.33425163 7.0008258 1.875 8.25 C1.875 9.24 1.875 10.23 1.875 11.25 C3.1125 11.62125 4.35 11.9925 5.625 12.375 C15.54569624 15.73927396 23.70502299 19.56166502 29.875 28.25 C30.865 29.61125 30.865 29.61125 31.875 31 C32.875 33.25 32.875 33.25 31.875 37.25 C10.095 37.25 -11.685 37.25 -34.125 37.25 C-32.46495546 33.09988866 -30.60282388 29.5144489 -28.28125 25.7421875 C-27.91149048 25.134888 -27.54173096 24.5275885 -27.1607666 23.90188599 C-25.9857199 21.97406919 -24.80537588 20.04955733 -23.625 18.125 C-22.83169653 16.82442286 -22.03872442 15.52364353 -21.24609375 14.22265625 C-13.38906544 1.34585985 -13.38906544 1.34585985 -11.26611328 0.57519531 C-7.51464987 0.00541775 -3.78808907 0.02393737 0 0 Z " fill="#06C8E6" transform="translate(553.125,411.75)"/>
<path d="M0 0 C0.99 0 1.98 0 3 0 C3.43699219 1.28583984 3.43699219 1.28583984 3.8828125 2.59765625 C7.33278673 12.22069758 10.1236888 18.22702984 19.375 22.9375 C20.90930009 23.64128662 22.44862865 24.33468857 24 25 C23 28 23 28 21.109375 29.02734375 C20.33078125 29.32769531 19.5521875 29.62804687 18.75 29.9375 C11.21362725 33.12642476 8.26916616 36.70724472 5 44 C4 46 3 48 2 50 C1.34 50 0.68 50 0 50 C-0.268125 49.21496094 -0.53625 48.42992187 -0.8125 47.62109375 C-3.80240035 39.60540695 -7.12370078 33.8310002 -15.03515625 30.01953125 C-15.97681641 29.63861328 -15.97681641 29.63861328 -16.9375 29.25 C-17.948125 28.8375 -18.95875 28.425 -20 28 C-20.33 27.01 -20.66 26.02 -21 25 C-19.91332031 24.48953125 -19.91332031 24.48953125 -18.8046875 23.96875 C-8.34305942 18.72398712 -4.33572799 13.11014553 -0.6640625 2.125 C-0.44492187 1.42375 -0.22578125 0.7225 0 0 Z " fill="#07C9E6" transform="translate(341,307)"/>
<path d="M0 0 C3.41261265 2.2750751 3.54919644 3.0116493 4.75 6.75 C7.16279786 13.14714987 10.80464376 16.50430133 16.9375 19.375 C17.9584375 19.684375 17.9584375 19.684375 19 20 C18.02797672 22.4225036 17.44136456 23.73855475 15.16015625 25.08984375 C14.46792969 25.36957031 13.77570313 25.64929688 13.0625 25.9375 C9.26242471 27.71086847 7.77614572 29.09247941 6 33 C5.2738002 34.43900109 4.54446799 35.8764244 3.8125 37.3125 C3.2063507 38.54069016 2.60149768 39.76952505 2 41 C-0.35716404 38.84545751 -1.78966144 36.80280126 -3.1875 33.9375 C-3.53167969 33.24527344 -3.87585938 32.55304688 -4.23046875 31.83984375 C-5 30 -5 30 -5 28 C-8.84700632 25.91620491 -12.90054429 24.50313376 -17 23 C-15.92641368 19.88659967 -15.21160309 19.1034504 -12.1875 17.625 C-4.83240334 13.87534288 -2.62035893 7.40727162 0 0 Z " fill="#06C8E6" transform="translate(450,323)"/>
<path d="M0 0 C2.31 0 4.62 0 7 0 C6.39986498 3.94202848 5.17981896 6.89685863 3.26953125 10.38671875 C2.71330078 11.40830078 2.15707031 12.42988281 1.58398438 13.48242188 C0.99939453 14.54009766 0.41480469 15.59777344 -0.1875 16.6875 C-0.75275391 17.72583984 -1.31800781 18.76417969 -1.90039062 19.83398438 C-5.05031882 25.58900783 -8.30387502 31.26063207 -11.73168945 36.85473633 C-12.91244827 38.85191203 -13.96241606 40.92483212 -15 43 C-59.55 43 -104.1 43 -150 43 C-150 42.67 -150 42.34 -150 42 C-143.18559336 40.92901209 -136.60137049 40.96205161 -129.71582031 41.12792969 C-127.20747897 41.17730041 -124.69911575 41.22556904 -122.19073486 41.27288818 C-121.5351989 41.28580477 -120.87966294 41.29872136 -120.20426226 41.31202936 C-111.76812823 41.47471149 -103.33091191 41.53583568 -94.89353418 41.59832716 C-86.69324931 41.65924127 -78.49694376 41.75335159 -70.29882812 41.95654297 C-63.76591388 42.11828103 -57.23683645 42.20479429 -50.70185161 42.20422101 C-47.25029185 42.20659543 -43.8082372 42.24512414 -40.35892487 42.37496185 C-26.14790893 43.38670016 -26.14790893 43.38670016 -13.68495178 37.93473816 C-9.74340838 32.90244366 -7.20633326 27.40565284 -4.9553299 21.45438385 C-3.72260436 18.28732956 -2.15733722 15.48924749 -0.4375 12.5625 C1.44542539 9.07436683 3.26594337 5.56444975 5 2 C3.35 1.67 1.7 1.34 0 1 C0 0.67 0 0.34 0 0 Z " fill="#05ABC8" transform="translate(446,406)"/>
<path d="M0 0 C7.3698934 2.89435813 15.0957987 7.33839982 19.22265625 14.265625 C18.9701628 19.69423415 16.63575333 23.62417873 13.97265625 28.203125 C13.31753052 29.35482178 13.31753052 29.35482178 12.64916992 30.52978516 C11.6939441 32.20822243 10.73503856 33.88456951 9.77294922 35.55908203 C8.13955761 38.41070084 6.52482233 41.27225946 4.9140625 44.13671875 C-0.57291161 53.89133938 -6.07997626 63.63189451 -11.77734375 73.265625 C-20.94403689 71.97070181 -29.55115131 65.81130757 -36.77734375 60.265625 C-35.78734375 59.770625 -35.78734375 59.770625 -34.77734375 59.265625 C-33.0690918 60.03833008 -33.0690918 60.03833008 -31.0390625 61.28515625 C-30.30107422 61.73052734 -29.56308594 62.17589844 -28.80273438 62.63476562 C-28.03123047 63.11107422 -27.25972656 63.58738281 -26.46484375 64.078125 C-19.87575238 68.17711862 -19.87575238 68.17711862 -12.77734375 71.265625 C-12.51034668 70.55277344 -12.24334961 69.83992188 -11.96826172 69.10546875 C-10.74502409 66.18855607 -9.31471899 63.56035288 -7.72265625 60.828125 C-7.11301025 59.77778076 -6.50336426 58.72743652 -5.87524414 57.64526367 C-5.22418701 56.52998291 -4.57312988 55.41470215 -3.90234375 54.265625 C-3.23051493 53.10617882 -2.55921491 51.94642608 -1.88842773 50.78637695 C1.34566884 45.19680448 4.60035799 39.61995552 7.8828125 34.05859375 C8.97529121 32.19012217 10.06774081 30.32163357 11.16015625 28.453125 C11.67368652 27.59525391 12.1872168 26.73738281 12.71630859 25.85351562 C13.41361084 24.6556543 13.41361084 24.6556543 14.125 23.43359375 C14.53226318 22.74547607 14.93952637 22.0573584 15.35913086 21.34838867 C16.40873967 18.81680464 16.49376387 16.98229683 16.22265625 14.265625 C11.82692049 8.80148124 5.74953796 4.6993775 -0.77734375 2.265625 C-4.45331495 3.41229029 -5.75864701 5.36797745 -7.60546875 8.640625 C-8.11916016 9.53910156 -8.63285156 10.43757813 -9.16210938 11.36328125 C-9.69513672 12.32105469 -10.22816406 13.27882813 -10.77734375 14.265625 C-11.31552734 15.21308594 -11.85371094 16.16054688 -12.40820312 17.13671875 C-14.12768596 20.17252314 -15.82944732 23.21769962 -17.52734375 26.265625 C-18.1320752 27.34835693 -18.73680664 28.43108887 -19.35986328 29.54663086 C-24.51344831 38.77826421 -29.65180293 48.01839351 -34.77734375 57.265625 C-35.43734375 57.265625 -36.09734375 57.265625 -36.77734375 57.265625 C-35.51660501 53.98806448 -34.12405273 50.89418417 -32.44921875 47.80859375 C-31.98580078 46.95458984 -31.52238281 46.10058594 -31.04492188 45.22070312 C-30.54412109 44.30740234 -30.04332031 43.39410156 -29.52734375 42.453125 C-28.74520508 41.02323242 -28.74520508 41.02323242 -27.94726562 39.56445312 C-23.82425706 32.07294169 -19.58186698 24.65414698 -15.27734375 17.265625 C-14.69049805 16.25781982 -14.10365234 15.25001465 -13.49902344 14.21166992 C-4.47413686 -1.18303478 -4.47413686 -1.18303478 0 0 Z " fill="#07B2CE" transform="translate(536.77734375,313.734375)"/>
<path d="M0 0 C0.95867981 -0.0049649 1.91735962 -0.00992981 2.90509033 -0.01504517 C6.06979094 -0.02961979 9.23444129 -0.03646378 12.39916992 -0.04199219 C13.48673773 -0.04481956 14.57430553 -0.04764694 15.69482994 -0.05056 C21.45915341 -0.0655399 27.22345197 -0.07477475 32.98779297 -0.07910156 C38.90045863 -0.08455997 44.81289095 -0.10853564 50.72548389 -0.13707352 C55.30615365 -0.15584415 59.88676905 -0.16091328 64.46747398 -0.16243744 C66.64443921 -0.16543606 68.82140413 -0.17336831 70.99833107 -0.18662262 C91.98016678 -0.30517046 111.01740483 0.33680591 127.31713867 15.16113281 C128.30713867 16.64613281 128.30713867 16.64613281 129.31713867 18.16113281 C126.18252459 16.71821522 123.62154687 14.93396266 120.87963867 12.84863281 C112.57780454 6.94866464 102.67703952 3.08273382 92.4259491 3.00291443 C91.46827637 2.99312561 90.51060364 2.98333679 89.52391052 2.97325134 C88.48525345 2.96749588 87.44659637 2.96174042 86.37646484 2.95581055 C85.27358124 2.94591095 84.17069763 2.93601135 83.03439331 2.92581177 C79.39298644 2.89425218 75.75156652 2.86946114 72.11010742 2.84472656 C69.58376224 2.82415226 67.05742046 2.80315566 64.53108215 2.78175354 C58.56368001 2.73221965 52.59626029 2.6869416 46.62881023 2.64373118 C39.83314553 2.5942857 33.03752821 2.53939477 26.24190938 2.48405159 C12.26703006 2.37036259 -1.70789478 2.26349526 -15.68286133 2.16113281 C-15.68286133 1.83113281 -15.68286133 1.50113281 -15.68286133 1.16113281 C-10.41984424 0.08443206 -5.34542915 0.00666793 0 0 Z " fill="#09B7D3" transform="translate(295.682861328125,373.8388671875)"/>
<path d="M0 0 C2.59905024 0.22148428 4.69715616 -0.29405666 7.24609375 -0.80859375 C9.5078125 -0.6875 9.5078125 -0.6875 11.93359375 -0.37109375 C17.25751005 0.19124034 22.52335291 0.30848836 27.87109375 0.31640625 C28.67764404 0.3208374 29.48419434 0.32526855 30.31518555 0.32983398 C34.08604156 0.6850552 34.08604156 0.6850552 37.24609375 -0.80859375 C39.41090172 -0.90752315 41.5790316 -0.93830475 43.74609375 -0.93359375 C44.93203125 -0.93617188 46.11796875 -0.93875 47.33984375 -0.94140625 C50.24609375 -0.80859375 50.24609375 -0.80859375 51.24609375 0.19140625 C52.23609375 0.00578125 53.22609375 -0.17984375 54.24609375 -0.37109375 C58.82226359 -1.13220308 62.83402583 -0.01916114 67.24609375 1.19140625 C67.24609375 0.53140625 67.24609375 -0.12859375 67.24609375 -0.80859375 C70.70440961 -0.83753922 74.16269447 -0.85537375 77.62109375 -0.87109375 C78.6059375 -0.87947266 79.59078125 -0.88785156 80.60546875 -0.89648438 C82.01699219 -0.90131836 82.01699219 -0.90131836 83.45703125 -0.90625 C84.76099854 -0.91410522 84.76099854 -0.91410522 86.09130859 -0.92211914 C88.24609375 -0.80859375 88.24609375 -0.80859375 90.24609375 0.19140625 C91.07109375 0.04703125 91.89609375 -0.09734375 92.74609375 -0.24609375 C98.99888185 -1.25100612 105.49250922 -1.87717217 111.24609375 1.19140625 C111.57609375 0.53140625 111.90609375 -0.12859375 112.24609375 -0.80859375 C114.55609375 -0.14859375 116.86609375 0.51140625 119.24609375 1.19140625 C119.24609375 1.52140625 119.24609375 1.85140625 119.24609375 2.19140625 C87.90601433 2.8788026 56.57072969 3.31421739 25.2232132 3.37307739 C22.86906375 3.37891128 20.51495917 3.38861722 18.16082764 3.39941406 C14.438893 3.41597471 10.71707942 3.42231507 6.99510956 3.4206028 C5.61896907 3.42144249 4.2428261 3.4256042 2.86670685 3.4332943 C0.97968529 3.44306392 -0.90739263 3.43903838 -2.79443359 3.43432617 C-3.85415375 3.43575119 -4.9138739 3.43717621 -6.00570679 3.43864441 C-8.76164501 3.19071004 -10.40692678 2.61155965 -12.75390625 1.19140625 C-8.11192982 -0.83201937 -4.85456753 -0.82207472 0 0 Z " fill="#09B8D6" transform="translate(508.75390625,464.80859375)"/>
<path d="M0 0 C0.37511719 1.2065625 0.75023437 2.413125 1.13671875 3.65625 C1.65306896 5.27101791 2.17002877 6.88559098 2.6875 8.5 C3.05391602 9.68722656 3.05391602 9.68722656 3.42773438 10.8984375 C6.63854016 20.81535663 11.58232186 28.74252207 20.87792969 33.95214844 C24.91544916 35.94582464 29.17509412 37.31999198 33.4375 38.75 C34.82098633 39.22373047 34.82098633 39.22373047 36.23242188 39.70703125 C38.48619205 40.47775058 40.74196445 41.24188813 43 42 C43.0625 44.28515625 43.0625 44.28515625 42 47 C39.16568298 48.60316056 36.09905485 49.47159845 33 50.4375 C22.25458709 54.08349673 13.96359817 57.75461528 8.296875 68.11328125 C7.53117188 69.69689453 7.53117188 69.69689453 6.75 71.3125 C6.22921875 72.38113281 5.7084375 73.44976562 5.171875 74.55078125 C4.59179688 75.76314453 4.59179688 75.76314453 4 77 C3 75 3 75 3.63671875 73.08203125 C4.73511663 70.70965517 5.85564655 68.35056384 7 66 C7.2784375 65.360625 7.556875 64.72125 7.84375 64.0625 C11.89839492 55.65286609 20.66551446 52.53749463 28.8125 49.125 C29.55395264 48.81433594 30.29540527 48.50367188 31.05932617 48.18359375 C32.12244019 47.75626953 32.12244019 47.75626953 33.20703125 47.3203125 C33.8410083 47.06523926 34.47498535 46.81016602 35.12817383 46.54736328 C37 46 37 46 41 46 C41 45.01 41 44.02 41 43 C40.27296875 42.84144531 39.5459375 42.68289063 38.796875 42.51953125 C25.92112022 39.53169584 14.26333484 35.70348462 6.3125 24.5625 C3.55158851 19.86148855 2.16115305 14.59099348 0.69848633 9.37133789 C0.18416628 7.56531708 -0.40240584 5.78020154 -1 4 C-1.66 3.67 -2.32 3.34 -3 3 C-3.226875 4.0725 -3.45375 5.145 -3.6875 6.25 C-6.82517462 18.62516425 -11.93975552 29.1936957 -23 36 C-23.66 36 -24.32 36 -25 36 C-25 35.34 -25 34.68 -25 34 C-24.154375 33.46375 -23.30875 32.9275 -22.4375 32.375 C-12.54394269 25.90344957 -9.63572098 16.68204089 -6 6 C-3.8611482 0 -3.8611482 0 0 0 Z " fill="#0AB1CD" transform="translate(681,317)"/>
<path d="M0 0 C1.35076896 0.00056482 2.70153853 0.00024617 4.05230713 -0.00088501 C7.70265703 -0.00145676 11.3528744 0.01026858 15.00319362 0.02426291 C18.82418943 0.03680005 22.64518857 0.03794311 26.46620178 0.04031372 C33.69439676 0.04651974 40.92253094 0.06291863 48.1506992 0.0830127 C56.38286079 0.10539908 64.61502534 0.11637201 72.84720981 0.12640357 C89.77455845 0.14728567 106.70184798 0.18244451 123.62915039 0.22705078 C123.62915039 0.55705078 123.62915039 0.88705078 123.62915039 1.22705078 C122.95053357 1.22851734 122.27191675 1.2299839 121.57273579 1.2314949 C105.01116093 1.26865094 88.44982212 1.3277814 71.88841724 1.41095352 C63.87922165 1.45065381 55.87012303 1.48309182 47.86083984 1.49804688 C40.87468721 1.51111038 33.88874877 1.53819377 26.90271682 1.58166385 C23.20837998 1.60417389 19.51430628 1.61996782 15.81989479 1.61893463 C11.68155154 1.61804131 7.54397622 1.64846819 3.40576172 1.68115234 C1.59637115 1.6736068 1.59637115 1.6736068 -0.24957275 1.66590881 C-15.47780895 1.85088666 -27.92748978 6.98227538 -39.05834961 17.35205078 C-45.66205769 24.26401094 -50.19855207 32.69047882 -54.37084961 41.22705078 C-55.08178711 39.60986328 -55.08178711 39.60986328 -55.37084961 37.22705078 C-47.92085399 21.15074444 -34.15173002 7.40018036 -17.52879333 1.16018677 C-11.81569008 -0.41551174 -5.87679677 -0.03364754 0 0 Z " fill="#03A6C3" transform="translate(308.370849609375,466.77294921875)"/>
<path d="M0 0 C0 3.1533149 -0.36360438 3.99351213 -1.8984375 6.6171875 C-2.29546875 7.30683594 -2.6925 7.99648438 -3.1015625 8.70703125 C-3.52179687 9.42246094 -3.94203125 10.13789063 -4.375 10.875 C-6.89073135 15.19105159 -9.16362698 19.34500792 -11 24 C-12.29355827 25.37195574 -13.62298702 26.71182656 -15 28 C-15.33 28.66 -15.66 29.32 -16 30 C4.13 29.67 24.26 29.34 45 29 C40.09906603 19.19813207 34.63300856 15.25008524 24.625 11.1875 C22.82319847 10.43653759 21.02358317 9.6803007 19.2265625 8.91796875 C18.04441162 8.43493286 18.04441162 8.43493286 16.83837891 7.94213867 C15 7 15 7 14 5 C25.96180132 7.89398419 37.8506053 12.57288281 45 23 C45.99 24.36125 45.99 24.36125 47 25.75 C48 28 48 28 47 32 C25.22 32 3.44 32 -19 32 C-17.35106046 27.87765115 -15.65396448 24.60145458 -13.33984375 20.859375 C-12.9899086 20.29172424 -12.63997345 19.72407349 -12.2794342 19.13922119 C-11.54416297 17.94812467 -10.80702517 16.75817857 -10.06811523 15.56933594 C-8.93382118 13.74408021 -7.8053148 11.91534672 -6.67773438 10.0859375 C-1.16059724 1.16059724 -1.16059724 1.16059724 0 0 Z " fill="#06AECB" transform="translate(538,417)"/>
<path d="M0 0 C3.41261265 2.2750751 3.54919644 3.0116493 4.75 6.75 C7.16279786 13.14714987 10.80464376 16.50430133 16.9375 19.375 C17.9584375 19.684375 17.9584375 19.684375 19 20 C18.02797672 22.4225036 17.44136456 23.73855475 15.16015625 25.08984375 C14.46792969 25.36957031 13.77570313 25.64929688 13.0625 25.9375 C9.26242471 27.71086847 7.77614572 29.09247941 6 33 C5.2738002 34.43900109 4.54446799 35.8764244 3.8125 37.3125 C3.2063507 38.54069016 2.60149768 39.76952505 2 41 C-0.35716404 38.84545751 -1.78966144 36.80280126 -3.1875 33.9375 C-3.53167969 33.24527344 -3.87585938 32.55304688 -4.23046875 31.83984375 C-5 30 -5 30 -5 28 C-8.84700632 25.91620491 -12.90054429 24.50313376 -17 23 C-15.92641368 19.88659967 -15.21160309 19.1034504 -12.1875 17.625 C-4.83240334 13.87534288 -2.62035893 7.40727162 0 0 Z M1 4 C0.50693359 5.08667969 0.50693359 5.08667969 0.00390625 6.1953125 C-3.5074717 13.33225956 -6.95174031 17.28791656 -14 21 C-13.10921327 23.29371967 -13.10921327 23.29371967 -10.25 24.3125 C-4.49096238 27.30276953 -1.59483963 31.12746821 1 37 C3.99357002 35.50321499 4.55176584 32.9714288 5.90234375 30.0078125 C7.82327676 26.49407739 9.99729178 24.77465798 13.6875 23.3125 C14.780625 22.879375 15.87375 22.44625 17 22 C15.06560818 19.63574333 13.93056288 18.97874374 10.9375 18.0625 C8 17 8 17 6.94921875 15.23046875 C6.63597656 14.49441406 6.32273437 13.75835937 6 13 C5.64679688 12.22140625 5.29359375 11.4428125 4.9296875 10.640625 C4.58164062 9.85171875 4.23359375 9.0628125 3.875 8.25 C3.52179688 7.45078125 3.16859375 6.6515625 2.8046875 5.828125 C2.53914063 5.22484375 2.27359375 4.6215625 2 4 C1.67 4 1.34 4 1 4 Z " fill="#09B6D2" transform="translate(450,323)"/>
<path d="M0 0 C2.875 1 2.875 1 5 2 C5 1.34 5 0.68 5 0 C11.62027163 -0.02534939 18.24053076 -0.04286664 24.86083984 -0.05493164 C27.11312325 -0.05996123 29.36540339 -0.06678566 31.61767578 -0.07543945 C34.85450039 -0.08756506 38.09128183 -0.09324206 41.328125 -0.09765625 C42.33554749 -0.10281754 43.34296997 -0.10797882 44.38092041 -0.11329651 C45.32159363 -0.11337204 46.26226685 -0.11344757 47.23144531 -0.11352539 C48.47054657 -0.11685631 48.47054657 -0.11685631 49.73468018 -0.12025452 C52 0 52 0 54.23553467 0.56959534 C55.10894501 0.78264565 55.10894501 0.78264565 56 1 C56.33 0.67 56.66 0.34 57 0 C59.33297433 -0.04092937 61.66705225 -0.04241723 64 0 C64 0.66 64 1.32 64 2 C64.99 2.66 65.98 3.32 67 4 C41.59 3.67 16.18 3.34 -10 3 C-5.74975698 -0.18768226 -4.99857345 -0.51005852 0 0 Z " fill="#0ABAD8" transform="translate(687,464)"/>
<path d="M0 0 C0.99 0 1.98 0 3 0 C3 0.66 3 1.32 3 2 C2.34 2 1.68 2 1 2 C0.9175 2.639375 0.835 3.27875 0.75 3.9375 C-1.4101956 12.75829871 -5.29796319 18.90860299 -13 24 C-15.78515625 24.71875 -15.78515625 24.71875 -18 25 C-17.08431396 27.3829432 -17.08431396 27.3829432 -13.75 28.3125 C-6.46097238 31.29369739 -2.20679742 38.05193892 1 45 C2.81090475 42.75792745 4.09405462 40.78367438 5.25 38.125 C7.95375682 33.29686282 11.57090456 29.72356034 16.9375 28.125 C17.618125 28.08375 18.29875 28.0425 19 28 C18 30 18 30 14.6875 31.8125 C8.34620618 35.37138939 6.32300273 40.23025818 4.02734375 46.890625 C3.68832031 47.58671875 3.34929687 48.2828125 3 49 C1.515 49.495 1.515 49.495 0 50 C-0.268125 49.21496094 -0.53625 48.42992187 -0.8125 47.62109375 C-3.80240035 39.60540695 -7.12370078 33.8310002 -15.03515625 30.01953125 C-15.97681641 29.63861328 -15.97681641 29.63861328 -16.9375 29.25 C-17.948125 28.8375 -18.95875 28.425 -20 28 C-20.33 27.01 -20.66 26.02 -21 25 C-19.91332031 24.48953125 -19.91332031 24.48953125 -18.8046875 23.96875 C-8.34305942 18.72398712 -4.33572799 13.11014553 -0.6640625 2.125 C-0.44492187 1.42375 -0.22578125 0.7225 0 0 Z " fill="#0CB5D1" transform="translate(341,307)"/>
<path d="M0 0 C0.66 0 1.32 0 2 0 C2 0.66 2 1.32 2 2 C2.5465625 2.27328125 3.093125 2.5465625 3.65625 2.828125 C5.28543798 3.64271899 6.91014615 4.46630945 8.53125 5.296875 C15.41543439 8.66650209 22.28936455 11.18064685 29.625 13.375 C30.50220703 13.63764648 31.37941406 13.90029297 32.28320312 14.17089844 C37.06235248 15.57560777 37.06235248 15.57560777 42 16 C42 16.66 42 17.32 42 18 C43.65 18.33 45.3 18.66 47 19 C47 20.32 47 21.64 47 23 C38.25353829 26.52130277 29.41688364 29.58202736 20.42504883 32.41235352 C16.35885199 33.72608306 12.66271305 35.06838923 8.9921875 37.27734375 C8.00476563 37.84582031 7.01734375 38.41429687 6 39 C5.34 38.67 4.68 38.34 4 38 C10.62143498 33.27648276 17.64700851 30.81122574 25.31103516 28.3503418 C27.3946306 27.68119564 29.47290822 26.99723537 31.55078125 26.31054688 C41.65460541 23 41.65460541 23 44 23 C43.505 21.515 43.505 21.515 43 20 C40.67334178 18.89523038 40.67334178 18.89523038 37.78515625 18.09765625 C36.70556641 17.76443359 35.62597656 17.43121094 34.51367188 17.08789062 C33.37478516 16.74951172 32.23589844 16.41113281 31.0625 16.0625 C9.1692821 9.42935342 9.1692821 9.42935342 3.375 4.875 C2.72273437 4.37742188 2.07046875 3.87984375 1.3984375 3.3671875 C0.93695312 2.91601562 0.47546875 2.46484375 0 2 C0 1.34 0 0.68 0 0 Z " fill="#0AB0CC" transform="translate(632,248)"/>
<path d="M0 0 C0.99 0.33 1.98 0.66 3 1 C4.03828593 3.81351618 4.9212669 6.56280526 5.75 9.4375 C8.07109248 16.99017846 10.99244269 22.81987417 16 29 C16.495 29.99 16.495 29.99 17 31 C11.09746801 28.55757297 8.41072022 23.01381138 5.796875 17.4296875 C3.86032759 12.70393375 2.28859089 7.93959843 1 3 C0.608125 3.9075 0.21625 4.815 -0.1875 5.75 C-0.46464844 6.38679687 -0.74179687 7.02359375 -1.02734375 7.6796875 C-1.74000818 9.37977854 -2.41442946 11.09603688 -3.06640625 12.8203125 C-7.04254004 23.08214954 -11.69206308 30.48338719 -21.48828125 35.9140625 C-25.07174228 37.46336603 -28.11153976 37.85598295 -32 38 C-28.93942959 34.93942959 -25.04097008 33.9536655 -21.04296875 32.4140625 C-13.3938451 28.85952751 -9.22993129 22.86641139 -6.27929688 15.10400391 C-5.34815214 12.41885743 -4.46805616 9.72399246 -3.6484375 7.00268555 C-2.18522117 2.18522117 -2.18522117 2.18522117 0 0 Z " fill="#0DAFCA" transform="translate(408,228)"/>
<path d="M0 0 C0.99 0.33 1.98 0.66 3 1 C1.68 1.33 0.36 1.66 -1 2 C-1 2.66 -1 3.32 -1 4 C-0.31035156 4.17015625 0.37929688 4.3403125 1.08984375 4.515625 C10.79391288 7.01818329 20.58556174 9.79367413 27 18 C30.11903824 23.57925013 34 30.56389652 34 37 C37.27773504 36.24849977 37.27773504 36.24849977 39 33 C38.125 38.75 38.125 38.75 37 41 C36.01 41 35.02 41 34 41 C33.78384033 40.42032471 33.56768066 39.84064941 33.3449707 39.2434082 C32.34807566 36.59428871 31.33054221 33.95356102 30.3125 31.3125 C29.97283203 30.40048828 29.63316406 29.48847656 29.28320312 28.54882812 C27.2479086 23.31793098 25.42053977 19.6600168 21 16 C20.27425781 15.31421875 19.54851562 14.6284375 18.80078125 13.921875 C14.86558776 11.22157486 10.67506493 9.80943718 6.1875 8.25 C5.30384766 7.93417969 4.42019531 7.61835938 3.50976562 7.29296875 C1.34277955 6.51988183 -0.82696909 5.75589226 -3 5 C-3 4.01 -3 3.02 -3 2 C-2.01 1.34 -1.02 0.68 0 0 Z " fill="#0BB4CF" transform="translate(373,266)"/>
<path d="M0 0 C-3 2 -3 2 -6.5625 2.8125 C-20.06703778 6.07136469 -30.51010068 15.57265361 -38 27 C-40.4546521 31.27631321 -42.76476722 35.60426867 -45 40 C-45.7109375 38.3828125 -45.7109375 38.3828125 -46 36 C-38.62278142 20.08073886 -25.14398028 6.70447824 -8.87890625 0.14453125 C-5.64462376 -0.89183024 -3.19558954 -1.27823582 0 0 Z " fill="#09ADCA" transform="translate(299,468)"/>
<path d="M0 0 C1.75950217 5.24200862 -0.24578799 9.96112564 -1.625 15.125 C-1.87378906 16.12015625 -2.12257813 17.1153125 -2.37890625 18.140625 C-5.82066018 31.25696086 -11.40213455 42.08103911 -23.30078125 49.1875 C-25 50 -25 50 -27 50 C-27 49.34 -27 48.68 -27 48 C-25.948125 47.4225 -24.89625 46.845 -23.8125 46.25 C-11.17567332 38.89120535 -7.77310706 27.40005555 -4 14 C-3.60128113 12.61949645 -3.20155836 11.23928242 -2.80078125 9.859375 C-1.8513115 6.5773176 -0.92027773 3.29037847 0 0 Z " fill="#0AB1CD" transform="translate(609,207)"/>
<path d="M0 0 C0.99 0.33 1.98 0.66 3 1 C5.63804589 0.60602665 5.63804589 0.60602665 8 0 C5.80084103 2.44215996 3.80570482 3.72010169 0.796875 5.015625 C-0.01910156 5.38042969 -0.83507812 5.74523437 -1.67578125 6.12109375 C-3.37309135 6.86543763 -5.07357323 7.60259627 -6.77734375 8.33203125 C-14.09812593 11.63040564 -19.99801129 15.71890598 -22.9375 23.4375 C-23.288125 24.613125 -23.63875 25.78875 -24 27 C-25.32 26.67 -26.64 26.34 -28 26 C-27.34 26 -26.68 26 -26 26 C-25.95875 25.34 -25.9175 24.68 -25.875 24 C-23.52779136 15.95242753 -17.63800225 11.63947339 -10.69921875 7.46484375 C-8.4482655 6.24326999 -6.25039964 5.19526213 -3.875 4.25 C-2.92625 3.8375 -1.9775 3.425 -1 3 C-0.67 2.01 -0.34 1.02 0 0 Z " fill="#07B5D1" transform="translate(632,421)"/>
<path d="M0 0 C2.31 0 4.62 0 7 0 C6.39986498 3.94202848 5.17981896 6.89685863 3.26953125 10.38671875 C2.71330078 11.40830078 2.15707031 12.42988281 1.58398438 13.48242188 C0.99939453 14.54009766 0.41480469 15.59777344 -0.1875 16.6875 C-1.03538086 18.24500977 -1.03538086 18.24500977 -1.90039062 19.83398438 C-5.05031882 25.58900783 -8.30387502 31.26063207 -11.73168945 36.85473633 C-12.92030916 38.86520821 -13.98402417 40.8979296 -15 43 C-16 40 -16 40 -15.10717773 37.90625 C-14.63739502 37.1121875 -14.1676123 36.318125 -13.68359375 35.5 C-13.16917725 34.61771729 -12.65476074 33.73543457 -12.12475586 32.82641602 C-11.56796143 31.89369873 -11.01116699 30.96098145 -10.4375 30 C-9.32222924 28.09284975 -8.20763874 26.18530151 -7.09375 24.27734375 C-6.55621094 23.3632373 -6.01867187 22.44913086 -5.46484375 21.50732422 C-1.74098554 15.13332024 1.77040835 8.63860507 5 2 C2.525 1.505 2.525 1.505 0 1 C0 0.67 0 0.34 0 0 Z " fill="#07B1CC" transform="translate(446,406)"/>
<path d="M0 0 C2.59272897 2.33421641 4.0458592 4.75029897 5.6875 7.8125 C10.419229 15.8272311 16.42679015 19.04372074 25 22 C25.66 22.66 26.32 23.32 27 24 C25.73581754 24.69965443 24.46334598 25.38434763 23.1875 26.0625 C22.47980469 26.44535156 21.77210938 26.82820313 21.04296875 27.22265625 C19 28 19 28 16 27 C17.98 26.34 19.96 25.68 22 25 C22 24.01 22 23.02 22 22 C19.36 21.67 16.72 21.34 14 21 C14 20.34 14 19.68 14 19 C13.401875 18.73574219 12.80375 18.47148437 12.1875 18.19921875 C6.4615485 15.06017034 2.84294398 8.68588797 0 3 C0 2.01 0 1.02 0 0 Z " fill="#08B3CF" transform="translate(602,395)"/>
<path d="M0 0 C11.96180132 2.89398419 23.8506053 7.57288281 31 18 C31.66 18.9075 32.32 19.815 33 20.75 C34 23 34 23 33.6875 25.3125 C33.460625 25.869375 33.23375 26.42625 33 27 C31 24 31 24 29.8125 21.25 C25.31739996 13.18982062 18.97529832 9.57716524 10.625 6.1875 C8.82319847 5.43653759 7.02358317 4.6803007 5.2265625 3.91796875 C4.43846191 3.59594482 3.65036133 3.2739209 2.83837891 2.94213867 C1 2 1 2 0 0 Z " fill="#07B6D4" transform="translate(552,422)"/>
<path d="M0 0 C1.0209375 0.20496094 1.0209375 0.20496094 2.0625 0.4140625 C5.09055274 0.99902723 5.99671937 1.06098938 9.0625 0.0390625 C11.39583333 0.37239583 13.72916667 0.70572917 16.0625 1.0390625 C17.0525 0.7090625 18.0425 0.3790625 19.0625 0.0390625 C21.59277066 0.20802882 24.07643491 0.54920771 26.58984375 0.8828125 C29.02112339 1.03644786 30.75501934 0.76717705 33.0625 0.0390625 C33.5575 1.5240625 33.5575 1.5240625 34.0625 3.0390625 C21.1925 3.0390625 8.3225 3.0390625 -4.9375 3.0390625 C-1.9375 0.0390625 -1.9375 0.0390625 0 0 Z " fill="#09B5D3" transform="translate(641.9375,463.9609375)"/>
<path d="M0 0 C-1.45706726 0.50367757 -2.91570096 1.00282556 -4.375 1.5 C-5.59316406 1.91765625 -5.59316406 1.91765625 -6.8359375 2.34375 C-9 3 -9 3 -11 3 C-11 3.99 -11 4.98 -11 6 C-10.32582031 6.10957031 -9.65164063 6.21914063 -8.95703125 6.33203125 C-5.39902454 7.13575535 -2.07013408 8.34736335 1.3125 9.6875 C1.97386963 9.94934082 2.63523926 10.21118164 3.31665039 10.48095703 C8.47974153 12.610106 12.83192472 15.24473729 17 19 C13.66781711 19 13.038314 18.55406428 10.3984375 16.7265625 C5.29946341 13.41514637 -0.11618319 11.53253173 -5.81640625 9.5078125 C-6.58597656 9.22421875 -7.35554687 8.940625 -8.1484375 8.6484375 C-8.84114746 8.40270996 -9.53385742 8.15698242 -10.24755859 7.90380859 C-12 7 -12 7 -14 4 C-10.5440617 -0.47239075 -5.23364579 -1.61035255 0 0 Z " fill="#09B2CE" transform="translate(647,357)"/>
<path d="M0 0 C12.15870807 0.45453114 21.30003312 4.65246603 31 12 C32.38576923 13.62332967 33.73499765 15.28089424 35 17 C31.86538592 15.55708241 29.3044082 13.77282985 26.5625 11.6875 C18.60915016 6.04849273 9.46984146 3.04251482 0 1 C0 0.67 0 0.34 0 0 Z " fill="#08B3D0" transform="translate(390,375)"/>
<path d="M0 0 C1.74176628 2.61264943 2.9546243 5.03380931 4.25 7.875 C8.06189741 15.52102162 13.40434402 18.46409118 21 22 C20.67 22.99 20.34 23.98 20 25 C19.01 24.67 18.02 24.34 17 24 C17.33 23.34 17.66 22.68 18 22 C17.13375 21.7525 16.2675 21.505 15.375 21.25 C7.92297403 18.48999038 4.19436695 14.49845225 0.75 7.4375 C-0.05215385 4.83049998 -0.1549527 2.71167223 0 0 Z " fill="#0DB6D2" transform="translate(344,310)"/>
<path d="M0 0 C1 3 1 3 -0.07421875 5.7421875 C-0.60660156 6.77601563 -1.13898437 7.80984375 -1.6875 8.875 C-2.20699219 9.90367187 -2.72648438 10.93234375 -3.26171875 11.9921875 C-6.69320326 17.92981238 -9.90267567 21.06425125 -16 24 C-16.66 23.67 -17.32 23.34 -18 23 C-17.46890625 22.62488281 -16.9378125 22.24976563 -16.390625 21.86328125 C-15.68421875 21.35152344 -14.9778125 20.83976562 -14.25 20.3125 C-13.55390625 19.81363281 -12.8578125 19.31476563 -12.140625 18.80078125 C-7.74862958 15.10605518 -5.22675549 10.80988068 -2.75 5.6875 C-1.96882812 4.08455078 -1.96882812 4.08455078 -1.171875 2.44921875 C-0.59179688 1.23685547 -0.59179688 1.23685547 0 0 Z " fill="#07B0CC" transform="translate(592,392)"/>
<path d="M0 0 C0.83273437 0.00322266 1.66546875 0.00644531 2.5234375 0.00976562 C3.35617187 -0.00634766 4.18890625 -0.02246094 5.046875 -0.0390625 C6.24183594 -0.0400293 6.24183594 -0.0400293 7.4609375 -0.04101562 C8.19183594 -0.04399658 8.92273438 -0.04697754 9.67578125 -0.05004883 C11.5234375 0.32226562 11.5234375 0.32226562 13.5234375 3.32226562 C12.5334375 3.65226562 11.5434375 3.98226563 10.5234375 4.32226562 C10.5234375 3.66226562 10.5234375 3.00226563 10.5234375 2.32226562 C4.2534375 2.32226562 -2.0165625 2.32226562 -8.4765625 2.32226562 C-5.70582021 -0.44847667 -3.78273825 0.03366515 0 0 Z " fill="#07B8D4" transform="translate(550.4765625,411.677734375)"/>
<path d="M0 0 C0.33 -0.33 0.66 -0.66 1 -1 C3.33297433 -1.04092937 5.66705225 -1.04241723 8 -1 C8 -0.34 8 0.32 8 1 C8.99 1.66 9.98 2.32 11 3 C4.07 2.67 -2.86 2.34 -10 2 C-6.59151038 -1.40848962 -4.39786212 -0.92586571 0 0 Z " fill="#0BB7D4" transform="translate(743,465)"/>
<path d="M0 0 C0.99 0.33 1.98 0.66 3 1 C-3.53877741 6.54805356 -8.51863877 9.40481676 -17 10 C-13.89737727 6.89737727 -9.89648971 5.88575968 -5.84765625 4.31640625 C-3.25160043 3.11630912 -1.8100405 2.16321913 0 0 Z " fill="#0AB6D1" transform="translate(393,256)"/>
<path d="M0 0 C3.17218843 3.62535821 4.42902597 7.51150278 6 12 C6.99 11.34 7.98 10.68 9 10 C8.67 11.65 8.34 13.3 8 15 C6.140625 14.8359375 6.140625 14.8359375 4 14 C2.734375 11.6015625 2.734375 11.6015625 1.75 8.625 C1.41484375 7.64789063 1.0796875 6.67078125 0.734375 5.6640625 C0 3 0 3 0 0 Z " fill="#08B5D1" transform="translate(590,440)"/>
<path d="M0 0 C0.99 0 1.98 0 3 0 C3 1.32 3 2.64 3 4 C1.68 4.33 0.36 4.66 -1 5 C-1.33 6.98 -1.66 8.96 -2 11 C-2.33 11 -2.66 11 -3 11 C-2.25 3.375 -2.25 3.375 0 0 Z " fill="#08B7D4" transform="translate(596,380)"/>
<path d="M0 0 C-2.85478326 1.90318884 -4.41941308 2.4619099 -7.6875 3.125 C-8.49574219 3.29257812 -9.30398438 3.46015625 -10.13671875 3.6328125 C-10.75160156 3.75398438 -11.36648438 3.87515625 -12 4 C-12.33 3.34 -12.66 2.68 -13 2 C-11.5882217 1.46605821 -10.17029756 0.94834896 -8.75 0.4375 C-7.96109375 0.14746094 -7.1721875 -0.14257812 -6.359375 -0.44140625 C-3.80896548 -1.04522837 -2.44677771 -0.8473932 0 0 Z " fill="#0AB8D5" transform="translate(299,468)"/>
<path d="M0 0 C0 0.66 0 1.32 0 2 C-5.41538462 5.07692308 -5.41538462 5.07692308 -8.375 4.6875 C-8.91125 4.460625 -9.4475 4.23375 -10 4 C-7.25346796 1.25346796 -3.91404908 0 0 0 Z " fill="#0ABED9" transform="translate(574,415)"/>
<path d="M0 0 C0.99 0 1.98 0 3 0 C3.33 0.99 3.66 1.98 4 3 C4.66 3.66 5.32 4.32 6 5 C3.03 4.505 3.03 4.505 0 4 C0 2.68 0 1.36 0 0 Z " fill="#08B8D5" transform="translate(629,412)"/>
<path d="M0 0 C0.99 0.99 1.98 1.98 3 3 C3.99 2.01 4.98 1.02 6 0 C5.67 1.65 5.34 3.3 5 5 C3.68 5 2.36 5 1 5 C0.67 3.35 0.34 1.7 0 0 Z " fill="#08BAD5" transform="translate(676,403)"/>
<path d="M0 0 C1.98 0 3.96 0 6 0 C6 0.33 6 0.66 6 1 C4.02 1 2.04 1 0 1 C0 0.67 0 0.34 0 0 Z " fill="#0BCEE8" transform="translate(389,464)"/>
<path d="M0 0 C1.98 0 3.96 0 6 0 C6 0.33 6 0.66 6 1 C4.02 1 2.04 1 0 1 C0 0.67 0 0.34 0 0 Z " fill="#0BCCE8" transform="translate(365,464)"/>
<path d="M0 0 C1.65 0 3.3 0 5 0 C5 0.33 5 0.66 5 1 C3.35 1 1.7 1 0 1 C0 0.67 0 0.34 0 0 Z " fill="#0BCCE8" transform="translate(342,464)"/>
<path d="M0 0 C4 1 4 1 4 1 Z " fill="#0ACDE7" transform="translate(356,464)"/>
<path d="M0 0 C3 1 3 1 3 1 Z " fill="#0CCDE8" transform="translate(372,464)"/>
<path d="" fill="#0EBFDB" transform="translate(0,0)"/>
<path d="" fill="#0DC1DC" transform="translate(0,0)"/>
<path d="" fill="#10C0DE" transform="translate(0,0)"/>
<path d="M0 0 C2 1 2 1 2 1 Z " fill="#0ED0EB" transform="translate(669,464)"/>
<path d="M0 0 C2 1 2 1 2 1 Z " fill="#0DD0EB" transform="translate(665,464)"/>
<path d="M0 0 C2 1 2 1 2 1 Z " fill="#0ECFEC" transform="translate(625,464)"/>
<path d="M0 0 C2 1 2 1 2 1 Z " fill="#0FD0EB" transform="translate(573,464)"/>
<path d="M0 0 C2 1 2 1 2 1 Z " fill="#0CD1EC" transform="translate(533,464)"/>
<path d="M0 0 C2 1 2 1 2 1 Z " fill="#0CD1EC" transform="translate(498,464)"/>
<path d="M0 0 C2 1 2 1 2 1 Z " fill="#0DCCE8" transform="translate(384,464)"/>
<path d="M0 0 C2 1 2 1 2 1 Z " fill="#0ACAE6" transform="translate(381,464)"/>
<path d="M0 0 C2 1 2 1 2 1 Z " fill="#0CCCE8" transform="translate(362,464)"/>
<path d="M0 0 C2 1 2 1 2 1 Z " fill="#0ACCE8" transform="translate(338,464)"/>
<path d="M0 0 C2 1 2 1 2 1 Z " fill="#0CCBE7" transform="translate(333,464)"/>
<path d="M0 0 C2 1 2 1 2 1 Z " fill="#0DCBE5" transform="translate(649,352)"/>
<path d="" fill="#293536" transform="translate(0,0)"/>
<path d="" fill="#213D40" transform="translate(0,0)"/>
<path d="" fill="#13BCD6" transform="translate(0,0)"/>
<path d="" fill="#10C2DC" transform="translate(0,0)"/>
<path d="" fill="#0EC0DC" transform="translate(0,0)"/>
<path d="" fill="#0EC0DC" transform="translate(0,0)"/>
<path d="" fill="#0DBEDB" transform="translate(0,0)"/>
<path d="" fill="#10C6E0" transform="translate(0,0)"/>
<path d="" fill="#0FC2DC" transform="translate(0,0)"/>
<path d="" fill="#0FC4E0" transform="translate(0,0)"/>
<path d="" fill="#13C4DF" transform="translate(0,0)"/>
<path d="" fill="#10CCE9" transform="translate(0,0)"/>
<path d="" fill="#0ED2EA" transform="translate(0,0)"/>
<path d="" fill="#0ECFE9" transform="translate(0,0)"/>
<path d="" fill="#0ED0EB" transform="translate(0,0)"/>
<path d="" fill="#0ED1EB" transform="translate(0,0)"/>
<path d="" fill="#0ECEE8" transform="translate(0,0)"/>
<path d="" fill="#0DD0EA" transform="translate(0,0)"/>
<path d="" fill="#0ED0EA" transform="translate(0,0)"/>
<path d="" fill="#0DD2ED" transform="translate(0,0)"/>
<path d="" fill="#0CD1ED" transform="translate(0,0)"/>
<path d="" fill="#0ED2ED" transform="translate(0,0)"/>
<path d="" fill="#0DD0ED" transform="translate(0,0)"/>
<path d="" fill="#0DD4EE" transform="translate(0,0)"/>
<path d="" fill="#0CD1EC" transform="translate(0,0)"/>
<path d="" fill="#09CAE6" transform="translate(0,0)"/>
<path d="" fill="#0BCCE7" transform="translate(0,0)"/>
<path d="" fill="#0BCCE7" transform="translate(0,0)"/>
<path d="" fill="#0DCCE7" transform="translate(0,0)"/>
<path d="" fill="#0CCCE8" transform="translate(0,0)"/>
<path d="" fill="#0CCBE8" transform="translate(0,0)"/>
<path d="" fill="#0CCBE7" transform="translate(0,0)"/>
<path d="" fill="#0DCAE7" transform="translate(0,0)"/>
<path d="" fill="#0ECBE8" transform="translate(0,0)"/>
<path d="" fill="#0ECCE9" transform="translate(0,0)"/>
<path d="" fill="#0ECDE9" transform="translate(0,0)"/>
<path d="" fill="#0BCEEB" transform="translate(0,0)"/>
<path d="" fill="#0AC8E4" transform="translate(0,0)"/>
<path d="" fill="#0ACDE9" transform="translate(0,0)"/>
<path d="" fill="#0EC5E1" transform="translate(0,0)"/>
<path d="" fill="#0BCCE8" transform="translate(0,0)"/>
<path d="" fill="#0CD0EA" transform="translate(0,0)"/>
<path d="" fill="#0BCDE8" transform="translate(0,0)"/>
<path d="" fill="#0FCEE7" transform="translate(0,0)"/>
<path d="" fill="#0ECDEA" transform="translate(0,0)"/>
<path d="" fill="#0CCBE6" transform="translate(0,0)"/>
<path d="" fill="#0CC9E6" transform="translate(0,0)"/>
<path d="" fill="#0EC9E6" transform="translate(0,0)"/>
<path d="" fill="#08CAE7" transform="translate(0,0)"/>
<path d="" fill="#0BCBE5" transform="translate(0,0)"/>
<path d="" fill="#14B8D4" transform="translate(0,0)"/>
<path d="" fill="#0BC6E4" transform="translate(0,0)"/>
<path d="" fill="#0DC9E6" transform="translate(0,0)"/>
<path d="" fill="#11C2DD" transform="translate(0,0)"/>
<path d="" fill="#0EC8E4" transform="translate(0,0)"/>
<path d="" fill="#10C3DE" transform="translate(0,0)"/>
<path d="" fill="#0CC6E4" transform="translate(0,0)"/>
<path d="" fill="#09CAE7" transform="translate(0,0)"/>
<path d="" fill="#11C2DD" transform="translate(0,0)"/>
<path d="" fill="#10BFD9" transform="translate(0,0)"/>
<path d="" fill="#14C6E4" transform="translate(0,0)"/>
<path d="" fill="#10C5E1" transform="translate(0,0)"/>
<path d="" fill="#0FC6E0" transform="translate(0,0)"/>
<path d="" fill="#0EC8E6" transform="translate(0,0)"/>
<path d="" fill="#10C8E7" transform="translate(0,0)"/>
<path d="" fill="#11C7E3" transform="translate(0,0)"/>
<path d="" fill="#0DC8E4" transform="translate(0,0)"/>
<path d="" fill="#11C8E4" transform="translate(0,0)"/>
<path d="" fill="#0FC5E0" transform="translate(0,0)"/>
<path d="" fill="#0CC6E5" transform="translate(0,0)"/>
<path d="" fill="#13C0DD" transform="translate(0,0)"/>
<path d="" fill="#0DC5E2" transform="translate(0,0)"/>
<path d="" fill="#13BFD7" transform="translate(0,0)"/>
</svg>
